<svg width="160" height="31" viewBox="0 0 160 31" fill="none" xmlns="http://www.w3.org/2000/svg">
<path d="M8.12346 24.8618C9.5969 24.8618 10.7914 23.6674 10.7914 22.194C10.7914 20.7205 9.5969 19.526 8.12346 19.526C6.65002 19.526 5.45557 20.7205 5.45557 22.194C5.45557 23.6674 6.65002 24.8618 8.12346 24.8618Z" stroke="#0AAD0A" stroke-width="1.28276" stroke-miterlimit="10" stroke-linecap="round"/>
<path d="M6.97607 9.18945H23.1146" stroke="#0AAD0A" stroke-width="1.28276" stroke-miterlimit="10" stroke-linecap="round"/>
<path d="M8.38892 12.4171H22.4092" stroke="#0AAD0A" stroke-width="1.28276" stroke-miterlimit="10" stroke-linecap="round"/>
<path d="M7.66113 19.525H18.1138C19.2586 19.525 20.2784 18.7977 20.6505 17.7144L24.9585 5.1809C25.3307 4.09761 26.3495 3.37036 27.4953 3.37036H30.6292" stroke="#0AAD0A" stroke-width="1.28276" stroke-miterlimit="10" stroke-linecap="round"/>
<path d="M8.12359 22.5791C8.33639 22.5791 8.5089 22.4066 8.5089 22.1939C8.5089 21.981 8.33639 21.8086 8.12359 21.8086C7.91079 21.8086 7.73828 21.981 7.73828 22.1939C7.73828 22.4066 7.91079 22.5791 8.12359 22.5791Z" stroke="#0AAD0A" stroke-width="1.06897" stroke-miterlimit="10" stroke-linecap="round"/>
<path d="M17.8222 24.8618C19.2956 24.8618 20.49 23.6674 20.49 22.194C20.49 20.7205 19.2956 19.526 17.8222 19.526C16.3487 19.526 15.1543 20.7205 15.1543 22.194C15.1543 23.6674 16.3487 24.8618 17.8222 24.8618Z" stroke="#0AAD0A" stroke-width="1.28276" stroke-miterlimit="10" stroke-linecap="round"/>
<path d="M17.8223 22.5791C18.035 22.5791 18.2076 22.4066 18.2076 22.1938C18.2076 21.981 18.035 21.8085 17.8223 21.8085C17.6095 21.8085 17.437 21.981 17.437 22.1938C17.437 22.4066 17.6095 22.5791 17.8223 22.5791Z" stroke="#0AAD0A" stroke-width="1.06897" stroke-miterlimit="10" stroke-linecap="round"/>
<path d="M21.1874 16.152H7.14791C6.67788 16.152 6.26535 15.8261 6.13624 15.3519L3.75481 6.62879C3.63578 6.19381 3.94745 5.75989 4.37916 5.75989H22.3776" stroke="#0AAD0A" stroke-width="1.28276" stroke-miterlimit="10" stroke-linecap="round"/>
<path d="M1 26.527C1 26.527 11.26 23.0552 25.1058 26.527" stroke="#0AAD0A" stroke-width="1.28276" stroke-miterlimit="10" stroke-linecap="round"/>
<!-- <text x="34" y="20" font-size="36" font-weight="bold" fill="black">BudgetBasket</text> -->
<!-- <text x="34" y="22" font-size="20" font-weight="bold" fill="black">BudgetBasket</text> -->
<style>
    .h3, h3 {
        letter-spacing: -.03rem;
    }
    .h3, h3 {
        font-size: calc(1.27813rem + .3375vw);
    }
    .h3, h3 {
        color: var(--fc-heading-color,inherit);
        font-weight: 600;
        line-height: 1.2;
        margin-bottom: 0.5rem;
        margin-top: 0;
    }
  </style>
  <text x="34" y="22" font-size="20" font-weight="bold" class="h3" fill="black">BudgetBasket</text>
</svg>
